<svg width="88" height="84" viewBox="0 0 88 84" fill="none" xmlns="http://www.w3.org/2000/svg">
<path d="M24.3003 76.3624C23.9657 76.0245 23.7137 75.7613 23.5444 75.5729C23.3717 75.3825 23.1857 75.1385 22.9863 74.8408C22.785 74.5465 22.6609 74.2828 22.6142 74.0496C22.5656 73.8198 22.5645 73.5525 22.611 73.2478C22.6554 72.9463 22.7743 72.6349 22.9675 72.3135C23.3399 71.6942 23.8849 71.3222 24.6025 71.1976C25.3147 71.0743 26.1127 71.2784 26.9965 71.8098C27.5991 72.1721 28.0804 72.5959 28.4404 73.0813C28.795 73.5679 28.9992 74.0964 29.0529 74.6665C29.1013 75.238 28.9742 75.8019 28.6715 76.3584L27.4463 75.6217C27.708 75.1181 27.754 74.6285 27.5843 74.1527C27.4112 73.6749 27.0049 73.2437 26.3655 72.8593C25.8533 72.5513 25.415 72.42 25.0505 72.4652C24.684 72.5137 24.4082 72.692 24.223 73C24.1707 73.0871 24.1274 73.1704 24.0931 73.2501C24.0589 73.3298 24.0394 73.4115 24.0346 73.4953C24.0265 73.577 24.0224 73.652 24.0224 73.7203C24.0223 73.7887 24.0417 73.8664 24.0804 73.9535C24.1172 74.044 24.1506 74.1211 24.1807 74.1847C24.2088 74.2517 24.2626 74.3365 24.3423 74.4391C24.4219 74.5417 24.4915 74.6268 24.5511 74.6945C24.6053 74.7636 24.6923 74.8615 24.8121 74.9882C24.9285 75.1129 25.0282 75.2162 25.1112 75.298C25.1889 75.3811 25.305 75.4988 25.4596 75.651C25.6189 75.8106 25.7574 75.9554 25.8752 76.0855C25.993 76.2156 26.1188 76.3664 26.2526 76.538C26.3844 76.713 26.4935 76.8766 26.5798 77.0287C26.6627 77.1789 26.7356 77.3457 26.7984 77.5293C26.8592 77.7163 26.8925 77.8959 26.8984 78.068C26.9022 78.2436 26.8789 78.4301 26.8285 78.6277C26.7761 78.8286 26.6915 79.0262 26.5747 79.2203C26.1863 79.8665 25.6527 80.2271 24.974 80.3021C24.2953 80.3772 23.5509 80.1712 22.7407 79.6841C21.9138 79.1869 21.3624 78.5728 21.0864 77.8417C20.8084 77.1139 20.8677 76.3633 21.2643 75.5899L22.4896 76.3266C22.0834 77.2674 22.3775 78.0368 23.3717 78.6346C23.8103 78.8983 24.1997 79.0276 24.5401 79.0225C24.877 79.0155 25.128 78.8747 25.2931 78.6002C25.5065 78.2453 25.5148 77.8903 25.3182 77.535C25.1971 77.3118 24.9107 76.9733 24.4589 76.5193L24.4539 76.5163L24.4489 76.5133L24.4469 76.5052L24.4419 76.5022L24.4369 76.4992L24.4318 76.4962L24.4298 76.4881L24.4248 76.4851L24.4198 76.4821L24.4148 76.4791L24.4128 76.471L24.4077 76.468L24.4027 76.465L24.3977 76.462L24.3957 76.4539L24.3907 76.4509L24.3857 76.4479L24.3756 76.4419L24.3736 76.4338L24.3686 76.4308L24.3636 76.4278L24.3585 76.4248L24.3565 76.4167L24.3515 76.4137L24.3465 76.4107L24.3415 76.4077L24.3395 76.3996L24.3345 76.3966L24.3294 76.3936L24.3244 76.3906L24.3224 76.3825L24.3174 76.3795L24.3124 76.3765L24.3073 76.3735L24.3053 76.3654L24.3003 76.3624Z" fill="white"/>
<path d="M18.1745 64.0245C18.7581 64.7731 18.9863 65.5487 18.8591 66.3512C18.7264 67.153 18.278 67.8518 17.514 68.4474C16.75 69.0431 15.9646 69.3062 15.1577 69.2369C14.3453 69.1669 13.6473 68.7576 13.0637 68.009C12.48 67.2604 12.2534 66.4837 12.3837 65.6788C12.5109 64.8762 12.9565 64.1772 13.7205 63.5815C14.4845 62.9859 15.2727 62.7231 16.0851 62.7931C16.8944 62.8654 17.5908 63.2759 18.1745 64.0245ZM17.3612 64.6586C17.0033 64.1996 16.5654 63.9714 16.0474 63.9741C15.5269 63.9736 15.0095 64.174 14.495 64.575C13.9775 64.9785 13.657 65.4315 13.5336 65.9339C13.4046 66.4356 13.5191 66.916 13.877 67.375C14.2348 67.834 14.6712 68.0634 15.1861 68.0631C15.7011 68.0629 16.2188 67.8598 16.7395 67.4539C17.2539 67.0528 17.5756 66.6014 17.7046 66.0997C17.8335 65.598 17.719 65.1176 17.3612 64.6586Z" fill="white"/>
<path d="M5.43974 56.422C5.5716 56.8355 5.70924 57.1012 5.85265 57.2189C5.99241 57.3381 6.21803 57.3401 6.5295 57.2251L7.15613 56.9938L6.76444 55.9329L7.73736 55.5737L8.12904 56.6345L12.9112 54.8689L13.3516 56.0617L8.56943 57.8273L8.87182 58.6463L7.89891 59.0055L7.59652 58.1865L6.86546 58.4565C6.27548 58.6743 5.80942 58.7089 5.46728 58.5604C5.12378 58.4083 4.86138 58.0867 4.68008 57.5956C4.5962 57.3684 4.52695 57.0963 4.47232 56.7792L5.43974 56.422Z" fill="white"/>
<path d="M5.92088 45.695L6.02325 46.8388L9.33229 46.5427C9.50348 46.5274 9.63968 46.4936 9.7409 46.4414C9.83823 46.3896 9.90801 46.3147 9.95023 46.2168C9.99245 46.1189 10.013 45.9974 10.0117 45.8524C10.0066 45.7078 9.9892 45.5348 9.95943 45.3335L10.9866 45.2416C11.0728 45.5045 11.1296 45.7877 11.1567 46.0912C11.2034 46.6125 11.1041 47.0155 10.859 47.3002C10.6135 47.5811 10.1776 47.7495 9.55119 47.8055L6.1371 48.1111L6.21597 48.9923L5.18299 49.0848L5.10412 48.2035L3.18406 48.3754L3.0702 47.1031L4.99027 46.9313L4.8879 45.7874L5.92088 45.695Z" fill="white"/>
<path d="M4.96578 38.5842L5.29308 37.295L10.1152 37.2316L10.1224 37.2032L5.91453 34.8473L6.21732 33.6546L11.0423 33.5799L11.0495 33.5515L6.83876 31.2069L7.16606 29.9177L12.6508 33.2447L12.3379 34.4771L7.4758 34.6028L7.47004 34.6256L11.6862 37.0441L11.3762 38.2651L4.96578 38.5842Z" fill="white"/>
<path d="M14.1406 21.1563C13.721 20.8499 13.2947 20.9933 12.8617 21.5865C12.5669 21.9903 12.424 22.3285 12.433 22.6011C12.442 22.8736 12.5982 23.14 12.9015 23.4002L12.1795 24.3893C11.6868 23.9909 11.4137 23.5038 11.3602 22.9278C11.3089 22.3488 11.5413 21.7059 12.0572 20.9992C12.9854 19.7277 14.0268 19.5134 15.1816 20.3564L17.5384 22.0769C17.7277 22.2151 17.8864 22.2826 18.0144 22.2794C18.1417 22.2707 18.2649 22.1648 18.3842 21.9617L18.8669 22.3141C18.7981 22.554 18.6889 22.7766 18.5392 22.9816C18.3411 23.253 18.1393 23.42 17.9339 23.4829C17.7284 23.5457 17.487 23.5121 17.2095 23.3821L17.1957 23.401C17.303 23.7309 17.3205 24.0846 17.248 24.4621C17.1779 24.8365 17.008 25.2082 16.7386 25.5774C16.3747 26.0759 15.9562 26.3774 15.4833 26.4819C15.0073 26.5842 14.5579 26.481 14.1351 26.1724C13.9237 26.0181 13.759 25.8495 13.641 25.6666C13.5222 25.4783 13.4463 25.2874 13.4133 25.0941C13.3772 24.8985 13.3794 24.68 13.4201 24.4389C13.463 24.1946 13.5279 23.9566 13.6148 23.725C13.7008 23.4879 13.8149 23.2157 13.957 22.9084C14.0308 22.7543 14.0863 22.6352 14.1235 22.5511C14.1607 22.467 14.2035 22.3653 14.252 22.2459C14.3027 22.1234 14.3367 22.0272 14.3537 21.9575C14.3708 21.8877 14.385 21.8086 14.3964 21.7202C14.4077 21.6317 14.4049 21.5595 14.3877 21.5035C14.3697 21.442 14.3408 21.3822 14.301 21.3241C14.2604 21.2606 14.2069 21.2046 14.1406 21.1563ZM16.0964 24.7676C16.4119 24.3354 16.5585 23.9128 16.5359 23.4997C16.5134 23.0867 16.3065 22.7374 15.9153 22.4518L15.1676 21.9059C15.1637 22.1498 15.0219 22.5759 14.7423 23.1842C14.5214 23.6855 14.4112 24.0815 14.4119 24.3722C14.4148 24.6596 14.5393 24.8932 14.7854 25.0729C15.2586 25.4183 15.6957 25.3166 16.0964 24.7676Z" fill="white"/>
<path d="M22.0378 11.3486C22.1907 11.2401 22.3473 11.1434 22.5074 11.0586L23.1956 12.0287L23.1765 12.0423C22.6207 12.312 22.2754 12.7198 22.1406 13.2657C22.0067 13.8061 22.1273 14.3407 22.5025 14.8696L24.3163 17.4263L23.2888 18.1552L19.7392 13.1516L20.7667 12.4227L21.4346 13.3642L21.4585 13.3472C21.2553 12.4329 21.4484 11.7667 22.0378 11.3486Z" fill="white"/>
<path d="M33.9022 11.6487C34.1378 11.5775 34.3407 11.4793 34.511 11.3543C34.6813 11.2294 34.8068 11.0975 34.8872 10.9589C34.9715 10.8192 35.0301 10.6892 35.0631 10.569C35.0987 10.444 35.1162 10.3264 35.1156 10.2164L36.3214 9.8516C36.3431 10.4899 36.1802 11.0575 35.8326 11.5544C35.4851 12.0513 34.9524 12.4084 34.2345 12.6256C33.3297 12.8994 32.5278 12.8319 31.8286 12.4231C31.1295 12.0143 30.6391 11.3444 30.3574 10.4134C30.0689 9.46001 30.1003 8.62614 30.4514 7.91181C30.8025 7.19747 31.4193 6.70681 32.3017 6.43983C33.2289 6.15928 34.0229 6.24758 34.6836 6.70473C35.3443 7.16188 35.8364 7.92512 36.16 8.99443L31.6565 10.357C31.8115 10.8693 32.0949 11.2529 32.5067 11.5078C32.9211 11.7579 33.3863 11.8049 33.9022 11.6487ZM32.5901 7.39324C32.1004 7.54144 31.7431 7.81073 31.5184 8.20113C31.2926 8.58779 31.2481 9.00732 31.385 9.45972L34.6827 8.46194C34.5447 8.0058 34.282 7.67716 33.8946 7.47603C33.511 7.27377 33.0762 7.24618 32.5901 7.39324Z" fill="white"/>
<path d="M53.5877 7.19098L57.5738 8.46127L57.202 9.62806L53.2159 8.35778L52.426 10.8365L57.0876 12.3221L56.7193 13.4777L50.6955 11.558L53.3001 3.3849L59.2123 5.26898L58.844 6.42461L54.294 4.97463L53.5877 7.19098Z" fill="white"/>
<path d="M68.631 13.5537C69.1003 13.93 69.3729 14.3738 69.4486 14.8851C69.5268 15.3933 69.3545 15.9111 68.9318 16.4384L66.282 19.7436L65.2899 18.9483L67.7162 15.9219C68.2806 15.2179 68.2474 14.613 67.6165 14.1072C67.2355 13.8018 66.8468 13.6653 66.4502 13.6979C66.0561 13.7274 65.7161 13.9204 65.4302 14.277L63.0956 17.1891L62.1127 16.4011L65.95 11.6146L66.9329 12.4026L66.4344 13.0244L66.4573 13.0427C66.7715 12.9442 67.1172 12.9284 67.4941 12.9953C67.8741 13.0646 68.253 13.2507 68.631 13.5537Z" fill="white"/>
<path d="M77.9091 24.8702L78.5595 25.9491L73.6667 28.8983C72.9307 29.3419 72.2576 29.4625 71.6476 29.2601C71.0376 29.0577 70.5017 28.5734 70.0399 27.8073C69.6063 27.088 69.4211 26.4175 69.4841 25.7957C69.5472 25.1739 69.7964 24.6907 70.2318 24.3461L70.8882 25.4351C70.4202 25.8768 70.417 26.4808 70.8788 27.2469C71.1551 27.7052 71.4712 27.9799 71.8271 28.071C72.1817 28.1674 72.5915 28.0755 73.0565 27.7952L73.6938 27.411L73.6817 27.3909C72.938 27.3375 72.3574 26.9645 71.94 26.272C71.5307 25.5929 71.4227 24.9031 71.6163 24.2026C71.8131 23.5002 72.3147 22.9059 73.121 22.4199C73.9306 21.9319 74.6903 21.7659 75.4 21.9219C76.1098 22.0779 76.6693 22.4955 77.0787 23.1746C77.4921 23.8605 77.5591 24.543 77.2798 25.2222L77.2919 25.2422L77.9091 24.8702ZM72.9472 25.9454C73.2134 26.387 73.564 26.6432 73.9989 26.714C74.4338 26.7848 74.9256 26.6549 75.4743 26.3241C76.0229 25.9934 76.3675 25.6193 76.508 25.2016C76.6485 24.784 76.5857 24.3543 76.3195 23.9127C76.0432 23.4544 75.6749 23.1952 75.2146 23.1352C74.7576 23.0732 74.2765 23.1944 73.7713 23.4989C73.2695 23.8014 72.9376 24.1701 72.7757 24.6052C72.6138 25.0404 72.671 25.4871 72.9472 25.9454Z" fill="white"/>
<path d="M82.5625 33.8042C82.5163 33.6224 82.5342 33.4466 82.616 33.2767C82.6987 33.1106 82.8386 33.0026 83.0354 32.9526C83.2323 32.9026 83.4049 32.9314 83.553 33.0388C83.706 33.1491 83.8055 33.2951 83.8517 33.4769C83.9007 33.6699 83.8857 33.8491 83.8067 34.0142C83.7277 34.1793 83.5879 34.2874 83.3873 34.3383C83.1866 34.3893 83.0098 34.3596 82.8569 34.2493C82.7087 34.1418 82.6105 33.9935 82.5625 33.8042ZM81.4101 33.4559L81.7201 34.677L75.774 36.1866L75.464 34.9656L81.4101 33.4559Z" fill="white"/>
<path d="M82.9147 46.0044C82.8875 46.6053 82.6898 47.0871 82.3215 47.4498C81.9571 47.8126 81.4373 47.9787 80.7622 47.9482L76.5302 47.7569L76.5877 46.4867L80.4626 46.6619C81.364 46.7026 81.833 46.3191 81.8695 45.5114C81.8916 45.0236 81.7725 44.6291 81.5124 44.328C81.2562 44.0271 80.8999 43.8663 80.4433 43.8456L76.7147 43.677L76.7716 42.4186L82.9001 42.6957L82.8432 43.9541L82.0471 43.9181L82.0458 43.9474C82.3107 44.1432 82.5272 44.413 82.6955 44.7569C82.8635 45.1047 82.9366 45.5205 82.9147 46.0044Z" fill="white"/>
<path d="M74.9671 56.7082C74.8718 56.9351 74.8179 57.154 74.8056 57.3649C74.7933 57.5758 74.8148 57.7564 74.8702 57.9068C74.9242 58.0608 74.9869 58.1889 75.0584 58.2909C75.132 58.3981 75.2114 58.4866 75.2965 58.5562L74.8085 59.7176C74.3031 59.3273 73.9698 58.8398 73.8087 58.2552C73.6475 57.6706 73.7122 57.0326 74.0027 56.3411C74.3689 55.4696 74.9324 54.895 75.6931 54.6172C76.4539 54.3394 77.2826 54.3889 78.1793 54.7656C79.0977 55.1515 79.72 55.7074 80.0462 56.4335C80.3725 57.1595 80.3571 57.9475 80 58.7974C79.6247 59.6905 79.0504 60.2457 78.2769 60.4631C77.5034 60.6804 76.6017 60.5727 75.5717 60.14L77.3942 55.8022C76.9009 55.5949 76.4247 55.5686 75.9657 55.7232C75.5088 55.8829 75.1759 56.2112 74.9671 56.7082ZM79.0817 58.4115C79.2799 57.9397 79.3003 57.4928 79.1429 57.0708C78.9891 56.6503 78.6943 56.3485 78.2585 56.1654L76.924 59.3417C77.3633 59.5263 77.784 59.5336 78.186 59.3635C78.5864 59.197 78.885 58.8797 79.0817 58.4115Z" fill="white"/>
<path d="M68.6071 66.6656C68.4392 66.8457 68.3131 67.0325 68.2287 67.2262C68.1443 67.4198 68.1022 67.5968 68.1022 67.7571C68.0997 67.9203 68.1143 68.0621 68.1462 68.1826C68.1782 68.3086 68.2222 68.419 68.278 68.5138L67.419 69.4352C67.0794 68.8944 66.935 68.3218 66.9856 67.7175C67.0363 67.1132 67.3174 66.5368 67.8288 65.9882C68.4734 65.2967 69.2006 64.952 70.0105 64.954C70.8203 64.956 71.581 65.2886 72.2925 65.9518C73.0211 66.6311 73.4131 67.3677 73.4686 68.1617C73.5241 68.9558 73.2375 69.6899 72.6089 70.3642C71.9483 71.0729 71.2176 71.3956 70.4166 71.3325C69.6156 71.2694 68.8066 70.8569 67.9894 70.0951L71.1977 66.6536C70.8063 66.2886 70.3685 66.0995 69.8843 66.086C69.4004 66.0781 68.9746 66.2713 68.6071 66.6656ZM71.8803 69.685C72.2292 69.3107 72.4027 68.8984 72.4007 68.4479C72.4016 68.0002 72.2292 67.6151 71.8835 67.2928L69.5342 69.8129C69.8827 70.1379 70.275 70.29 70.711 70.2691C71.1443 70.2512 71.534 70.0565 71.8803 69.685Z" fill="white"/>
<path d="M61.6027 78.6936C61.4379 78.783 61.271 78.8603 61.1018 78.9254L60.5345 77.88L60.5551 77.8688C61.1391 77.6674 61.5306 77.3038 61.7297 76.7779C61.9272 76.2574 61.8712 75.7122 61.5619 75.1423L60.0666 72.3872L61.1738 71.7862L64.1002 77.178L62.993 77.779L62.4424 76.7645L62.4166 76.7784C62.5091 77.7105 62.2378 78.3488 61.6027 78.6936Z" fill="white"/>
</svg>
